<svg width="24" height="24" viewBox="0 0 24 24" fill="none" xmlns="http://www.w3.org/2000/svg">
  <defs>
    <!-- Define the gradient -->
    <linearGradient id="redGradient" x1="0%" y1="0%" x2="100%" y2="100%">
      <stop offset="0%" stop-color="#ef4444"/>
      <stop offset="100%" stop-color="#b91c1c"/>
    </linearGradient>
  </defs>

  <!-- Apply gradient to the paths -->
  <path d="M21 2.25H3C2.17157 2.25 1.5 2.92157 1.5 3.75V4.5C1.5 5.32843 2.17157 6 3 6H21C21.8284 6 22.5 5.32843 22.5 4.5V3.75C22.5 2.92157 21.8284 2.25 21 2.25Z" fill="url(#redGradient)"/>
  <path d="M3.48986 7.5C3.43717 7.49972 3.385 7.51054 3.33677 7.53177C3.28853 7.553 3.24532 7.58416 3.20993 7.62321C3.17455 7.66227 3.1478 7.70834 3.13142 7.75843C3.11504 7.80851 3.10939 7.86149 3.11486 7.91391L4.34814 19.7527C4.34789 19.7561 4.34789 19.7595 4.34814 19.763C4.41258 20.3105 4.67584 20.8154 5.08793 21.1817C5.50002 21.548 6.03226 21.7502 6.58361 21.75H17.416C17.9671 21.75 18.4992 21.5477 18.9111 21.1814C19.323 20.8151 19.5861 20.3104 19.6505 19.763V19.7531L20.8819 7.91391C20.8874 7.86149 20.8817 7.80851 20.8653 7.75843C20.849 7.70834 20.8222 7.66227 20.7868 7.62321C20.7514 7.58416 20.7082 7.553 20.66 7.53177C20.6118 7.51054 20.5596 7.49972 20.5069 7.5H3.48986ZM15.1552 15.9698C15.2265 16.0391 15.2833 16.1219 15.3223 16.2133C15.3614 16.3047 15.3818 16.403 15.3825 16.5024C15.3832 16.6018 15.3642 16.7004 15.3264 16.7924C15.2887 16.8844 15.2331 16.9679 15.1627 17.0382C15.0924 17.1085 15.0089 17.1641 14.9169 17.2018C14.8249 17.2395 14.7263 17.2585 14.6269 17.2577C14.5275 17.257 14.4292 17.2365 14.3378 17.1974C14.2464 17.1583 14.1636 17.1015 14.0944 17.0302L12 14.9358L9.90518 17.0302C9.76388 17.1674 9.57423 17.2436 9.37722 17.2422C9.18021 17.2408 8.99166 17.162 8.85232 17.0227C8.71298 16.8834 8.63404 16.6949 8.63255 16.4979C8.63107 16.3009 8.70717 16.1112 8.84439 15.9698L10.9392 13.875L8.84439 11.7802C8.70717 11.6388 8.63107 11.4491 8.63255 11.2521C8.63404 11.0551 8.71298 10.8666 8.85232 10.7273C8.99166 10.588 9.18021 10.5092 9.37722 10.5078C9.57423 10.5064 9.76388 10.5826 9.90518 10.7198L12 12.8142L14.0944 10.7198C14.2357 10.5826 14.4253 10.5064 14.6224 10.5078C14.8194 10.5092 15.0079 10.588 15.1472 10.7273C15.2866 10.8666 15.3655 11.0551 15.367 11.2521C15.3685 11.4491 15.2924 11.6388 15.1552 11.7802L13.0603 13.875L15.1552 15.9698Z" fill="url(#redGradient)"/>
</svg>

