<svg width="20" height="24" viewBox="0 0 20 24" fill="none" xmlns="http://www.w3.org/2000/svg">
  <defs>
    <linearGradient id="gradient" x1="0%" y1="0%" x2="100%" y2="100%">
      <stop offset="0%" stop-color="#007BFF"/>
      <stop offset="100%" stop-color="#0056b3"/>
    </linearGradient>
  </defs>
  
  <path d="M8 10.8C9.65685 10.8 11 9.1882 11 7.19998C11 5.21175 9.65685 3.59998 8 3.59998C6.34315 3.59998 5 5.21175 5 7.19998C5 9.1882 6.34315 10.8 8 10.8Z" fill="url(#gradient)"/>
  
  <path d="M8 13.2C11.3137 13.2 14 16.4235 14 20.4H2C2 16.4235 4.68629 13.2 8 13.2Z" fill="url(#gradient)"/>
  
  <path d="M16 8.39998C16 7.73723 15.5523 7.19998 15 7.19998C14.4477 7.19998 14 7.73723 14 8.39998V9.59998H13C12.4477 9.59997 12 10.1372 12 10.8C12 11.4627 12.4477 12 13 12H14V13.2C14 13.8627 14.4477 14.4 15 14.4C15.5523 14.4 16 13.8627 16 13.2V12H17C17.5523 12 18 11.4627 18 10.8C18 10.1372 17.5523 9.59998 17 9.59998H16V8.39998Z" fill="url(#gradient)"/>
</svg>

